<?xml version="1.0" encoding="UTF-8" standalone="no"?>
<!DOCTYPE svg PUBLIC "-//W3C//DTD SVG 1.1//EN" "http://www.w3.org/Graphics/SVG/1.1/DTD/svg11.dtd">
<svg width="134.8" height="134.39" viewBox="0 0 134.79859 134.3908" xmlns="http://www.w3.org/2000/svg">
	<defs>
		<radialGradient id="a" cx="52.103" cy="36.453" r="101.58" gradientUnits="userSpaceOnUse">
			<stop stop-color="#d1f593" offset="0"/>
			<stop stop-color="#81ce09" offset="1"/>
		</radialGradient>
	</defs>
	<path d="m76.249 0.01881c-3.7949-0.11197-7.6244 0.3125-10.25 0.3125-3.2247 0-7.7162-0.49257-11.812 0.21875-2.0482 0.35566-4.0387 1.0456-5.6875 2.3438s-2.8842 3.2108-3.4062 5.75c-1.2574 6.1145-0.21875 12.973-0.21875 18.594v17.656c-8.0332-0.0057-16.061-9.1e-4 -24.094 0-3.7534 0-8.579-0.41787-12.75 0.71875-2.0855 0.56831-4.0754 1.582-5.5 3.3125s-2.2188 4.1212-2.2188 7.1562c0 7.4589-0.72179 15.466 0.03125 23.188h-0.03125c0 0.05868 0.03048 0.09804 0.03125 0.15625 0.04129 3.1259 1.1708 5.6015 3 7.2188 1.8633 1.6474 4.2716 2.455 6.8125 2.875 5.0818 0.84007 10.882 0.15625 14.406 0.15625 1.5049 0 6.7971-0.27202 11.875-0.28125 2.5389-0.0046 5.011 0.04385 6.75 0.21875 0.77038 0.07748 1.3095 0.21382 1.6875 0.3125v27.281c0 4.4061 0.26705 8.5063 2.1562 11.75s5.5401 5.2812 11.094 5.2812h14.125c3.5899 2e-3 8.7911 0.91748 12.781-1.75 3.8735-2.5907 4.837-7.5126 5.0312-12.312s-0.40625-9.7797-0.40625-12.844v-14.562c0-1.586-0.17385-2.7063-0.15625-3 0.05547-0.01555 0.23533-0.09375 0.8125-0.09375h28.875c3.123 0 7.0391 0.54753 10.438-1.75 2.4825-1.6778 3.688-4.0393 4.1875-6.4062s0.40625-4.7843 0.40625-7c0-3.2548 0.70094-8.8468 0.5625-14.219s-1.0491-10.848-5.1562-13.625c-3.3932-2.2975-7.3099-1.7812-10.438-1.7812h-28.875c-0.5771 0-0.75706-0.0782-0.8125-0.09375-0.01763-0.29387 0.15625-1.4144 0.15625-3v-28.875c-9.9e-4 -3.1901-0.23443-6.7356-3.0312-9.5312-2.6459-2.6453-6.5776-3.263-10.375-3.375zm-19.094 5.0625c1.6947-0.00561 3.513 0.15625 5.125 0.15625h14.938c2.3565 0 3.8518 0.48968 4.875 1.2188s1.6708 1.7322 2.0938 3.0938c0.84585 2.7232 0.59375 6.7295 0.59375 10.562v27.25c0 0.90426 0.7075 1.5728 1.2188 1.8438s1.0058 0.39377 1.5938 0.5c1.1758 0.21245 2.6718 0.28402 4.4688 0.3125 3.594 0.05697 8.3457-0.12461 13.25-0.28125s9.9692-0.296 14.062-0.125c2.0467 0.0855 3.8563 0.24788 5.25 0.5s2.3589 0.66146 2.625 0.875c2.0046 1.61 2.8436 6.088 2.8125 11.062s-0.75 10.19-0.75 13.469c0 1.9614 0.0467 3.8584-0.34375 5.3438s-1.051 2.54-2.75 3.375c-1.933 0.94928-5.5415 0.5625-8.5312 0.5625h-28.75c-0.85464 0-1.3285-0.26318-2.4375 0-0.55449 0.13159-1.2398 0.71288-1.4688 1.2812s-0.25 1.0392-0.25 1.625v12.812c0 7.6852 0.94826 15.843 0.03125 23.094a1.4911 1.4911 0 0 0 -0.03125 0.1875c0 2.1271-0.78102 3.2486-2.3125 4.1875s-3.9032 1.4953-6.5312 1.7188c-5.2561 0.44692-11.393-0.375-14.812-0.375-2.203-1e-3 -4.4867 0.19924-6.375-0.0937s-3.2739-0.91337-4.2812-2.6562c-1.1141-1.9287-0.6875-5.7387-0.6875-8.875v-30c1.2e-4 -0.83208-0.43657-1.6898-1.0312-2.1875s-1.2907-0.7557-2.0312-0.93755c-1.481-0.36371-3.2922-0.39455-5.4375-0.34375-4.2905 0.10159-9.8521 0.70329-15.375 1.0312s-11 0.35429-14.875-0.5625c-1.9376-0.45839-3.4628-1.1676-4.4062-2.0312s-1.4075-1.8359-1.4062-3.4062v-23.188c0-2.2005 0.59392-3.4666 1.5312-4.375s2.3392-1.496 4.0938-1.8125c3.509-0.63292 8.1232-0.09375 11.625-0.09375h25.562c0.60966 0 1.0238-0.38905 1.1875-0.59375s0.21083-0.33619 0.25-0.4375c0.07835-0.20263 0.10355-0.28725 0.125-0.40625 0.04291-0.238 0.04029-0.49322 0.0625-0.78125 0.04443-0.57607 0.10141-1.3295 0.125-2.25 0.04718-1.841 0.06204-4.2868 0.0625-6.7812 9.2e-4 -4.9889-0.0625-10.231-0.0625-10.969 0-3.0959-0.65759-7.9539-0.5-12.438 0.07879-2.2418 0.3762-4.3619 0.96875-6s1.4065-2.7446 2.625-3.3438c1.0629-0.52271 2.5877-0.71315 4.2812-0.71875z"/>
	<path d="m51.729 128.81c0 2.5163 27.68 1.3349 30.526 0.78917 4.7215-0.90315-8.7736-3.0157-9.9221-3.0678-1.844-0.0821-20.606-0.8732-20.603 2.2786" fill="#67ba06"/>
	<path d="m87.216 123.81v-35.14c0-2.27 1.3069-1.4315 3.4764-1.4315l28.782-0.0019c2.9548 0 6.1916 0.38541 8.7794-1.361 3.9903-2.6959 3.516-7.1962 3.516-11.364 0-6.4428 2.8601-21.5-3.5189-25.809-5.5744-3.7652-17.838-1.3629-24.052-1.3629-2.8331 0-16.98 1.7329-16.98-1.4325 0-9.2971 0-18.593-0.0019-27.889 0-7.6773-0.02222-15.231-9.9965-15.231h-13.741c-3.3933 0-8.0482-0.7428-11.286 0.62786-7.458 3.1548-4.8751 16.736-4.8751 23.035 0 1.6537 0.26273 20.89-0.24052 20.89h-25.671c-6.7886 0-18.644-1.8739-18.642 8.3283 0 7.8337 9.7e-4 15.668 9.7e-4 23.502 0 10.271 13.201 8.0694 19.858 8.0694 2.0014 0 24.694-0.25791 24.694 0.24148 0 9.6941 9.7e-4 19.387 9.7e-4 29.08 0 3.1374-0.63655 7.3662 0.62593 10.356 2.2062 5.2209 7.4338 4.8741 12.099 4.8741 7.1102-2e-3 27.177 3.6029 27.172-7.9815" fill="url(#a)"/>
	<path d="m8.4851 52.106c2.5172 0 1.3369 27.68 0.7911 30.526-0.90605 4.7225-3.0176-8.7736-3.0697-9.9211-0.0821-1.842-0.87127-20.608 2.2786-20.605" fill="#b2ed21"/>
	<path d="m128.43 52.106c2.5163 0 1.3378 27.68 0.79304 30.526-0.90605 4.7225-3.0195-8.7736-3.0717-9.9211-0.0821-1.842-0.86837-20.608 2.2786-20.605" fill="#b2ed21"/>
	<path d="m52.214 83.1c2.5713 0.0029 1.2905 39.845 0.77758 43.518-0.34291 2.4428-1.2422 2.1946-1.759-0.0493-1.1794-5.1204-1.2238-10.617-1.3426-15.841-0.04926-2.1222-0.76116-27.631 2.324-27.628" fill="#67ba06"/>
	<path d="m89.105 52.362c0 2.5646 34.652 1.2451 37.831 0.85582 1.5069-0.18546 3.4397-0.94952 0.94372-1.7145-4.3361-1.3262-9.2846-1.3137-13.768-1.4489-2.0207-0.06085-25.006-0.81911-25.006 2.3076" fill="#b2ed21"/>
	<path d="m8.4851 52.106c0.0029-2.1743 41.166-1.7377 41.168 9.7e-4 0 1.8594-41.162 5.389-41.168-9.7e-4" fill="#b2ed21"/>
	<path d="m51.729 8.8643c0 2.5172 27.68 1.3349 30.526 0.79014 4.7205-0.90315-8.7736-3.0166-9.9231-3.0688-1.843-0.0821-20.605-0.87224-20.602 2.2786" fill="#b2ed21"/>
	<path d="m51.729 8.8643c-2.1714 0-1.7426 40.861-9.7e-4 40.861 1.8932 9.7e-4 5.3696-40.861 9.7e-4 -40.861" fill="#b2ed21"/>
	<path d="m83.388 7.935c-2.1753 0-1.219 23.422-1.2094 25.341 0.01739 3.5827-0.42405 7.883 0.6636 11.364 0.83843 2.6853 2.1772-4.3573 2.2284-4.7543 0.41052-3.2224 3.2224-31.957-1.6827-31.951" fill="#b2ed21"/>
	<path d="m83.387 84.365c-1.8816-0.0048-1.2132 22.32-1.2132 24.259 0 5.5522-0.25791 11.209 0.31586 16.742 0.31683 3.0668 1.4161 3.346 2.097 0.20381 0.67809-3.118 3.4503-41.215-1.1997-41.204" fill="#67ba06"/>
	<path d="m8.9198 82.403c-0.0029-2.1695 23.424-1.219 25.34-1.2074 3.5846 0.01739 7.884-0.42405 11.364 0.66167 2.6872 0.83843-4.3583 2.1792-4.7524 2.2294-3.2204 0.40956-31.963 3.2156-31.952-1.6836" fill="#67ba06"/>
	<path d="m85.517 82.407c-0.0019-1.9039 21.462-1.218 23.306-1.218 5.5512 0 11.208-0.25404 16.742 0.31876 3.0649 0.31683 3.347 1.4151 0.20478 2.098-3.1267 0.67905-40.252 3.5295-40.252-1.1987" fill="#67ba06"/>
	<path transform="translate(-.84452,-.82494)" d="m77.062 2.3438c-3.6502-0.1077-7.4426 0.3125-10.219 0.3125-6.7248 0-17.59-1.863-19.438 7.125-1.1775 5.7261-0.1875 12.49-0.1875 18.281v19.156c-8.5321-0.0077-17.061-9.7e-4 -25.594 0-7.6937 0-18.969-1.4459-18.969 9.6875 0 7.6077-0.75826 15.62 0 23.188 0 11.514 15.352 8.9062 22.75 8.9062 2.6129 0 21.812-1.0433 21.812 0.96875v28.062c0 8.6635 1.2957 15.531 11.75 15.531h14.125c3.7758 2e-3 8.6301 0.71103 11.938-1.5 6.4399-4.3071 3.9688-17.401 3.9688-23.906v-14.562c0-3.005-1.0033-4.5938 2.1562-4.5938h28.875c3.2523 0 6.7491 0.42318 9.5938-1.5 4.3119-2.9142 3.9375-7.6424 3.9375-12.156 0-6.9209 2.8636-21.995-3.9375-26.594-2.8447-1.9261-6.3453-1.5312-9.5938-1.5312h-28.875c-3.1596 0-2.1562-1.5897-2.1562-4.5938v-28.875c-9.7e-4 -3.1267-0.20113-6.0771-2.5938-8.4688-2.1854-2.185-5.6936-2.8298-9.3438-2.9375zm-19.062 2.0625c1.7882-0.00592 3.6201 0.15625 5.125 0.15625h14.938c10.283 0 9.0625 8.8706 9.0625 16.375v27.25c0 3.2494 36.676-1.7292 41.906 2.4688 5.5058 4.422 2.625 19.6 2.625 25.688 0 3.8715 0.19961 8.0292-3.9375 10.062-2.6022 1.2779-6.3969 0.71875-9.1875 0.71875h-28.75c-2.0169 0-2.6562-0.62415-2.6562 1.4062v12.812c0 7.5604 0.94952 15.773 0 23.281 0 10.322-18.834 7.0312-25.156 7.0312-4.2076-2e-3 -9.4319 0.83512-11.938-3.5-1.531-2.6505-0.90625-6.7011-0.90625-9.625v-30c9.7e-4 -6.7355-44.575 6.9953-44.562-8.4375v-23.188c0-10.002 12.077-7.7812 18.75-7.7812h25.562c0.49263 0 0.25-19.094 0.25-20.719 0-5.7367-2.627-19.897 3.9375-23.125 1.4093-0.69306 3.1493-0.86908 4.9375-0.875z" fill="#507323"/>
</svg>
